<svg width="16" height="16" viewBox="0 0 16 16" fill="none" xmlns="http://www.w3.org/2000/svg">
<path d="M9 16C8.63667 16 8.29067 15.8847 8.00067 15.6667L6.4 14.4667C5.732 13.966 5.33333 13.1687 5.33333 12.3333V8.23267C5.33333 7.852 5.17 7.488 4.88533 7.23533L0.672667 3.496C0.245333 3.11667 0 2.57133 0 2C0 0.897333 0.897333 0 2 0H14C15.1027 0 16 0.897333 16 2C16 2.57133 15.7547 3.11667 15.3273 3.496L11.1153 7.23533C10.83 7.488 10.6667 7.85133 10.6667 8.23267V14.3333C10.6667 15.252 9.91867 16 9 16ZM2 1.33333C1.63267 1.33333 1.33333 1.63267 1.33333 2C1.33333 2.19067 1.41533 2.372 1.558 2.49867L5.77067 6.238C6.34 6.744 6.66667 7.47067 6.66667 8.23267V12.3333C6.66667 12.7507 6.866 13.1493 7.2 13.4L8.80067 14.6007C8.84133 14.6307 8.908 14.6667 9 14.6667C9.184 14.6667 9.33333 14.5173 9.33333 14.3333V8.23267C9.33333 7.47067 9.66 6.744 10.2293 6.23867L14.442 2.49933C14.5847 2.372 14.6667 2.19067 14.6667 2C14.6667 1.63267 14.3673 1.33333 14 1.33333H2Z" fill="#717171"/>
</svg>
